<?xml version="1.0" standalone="no"?>
<!DOCTYPE svg PUBLIC "-//W3C//DTD SVG 20010904//EN"
 "http://www.w3.org/TR/2001/REC-SVG-20010904/DTD/svg10.dtd">
<svg version="1.0" xmlns="http://www.w3.org/2000/svg"
 width="888.000000pt" height="346.000000pt" viewBox="0 0 888.000000 346.000000"
 preserveAspectRatio="xMidYMid meet">
<metadata>
Created by potrace 1.15, written by Peter Selinger 2001-2017
</metadata>
<g transform="translate(0.000000,346.000000) scale(0.100000,-0.100000)"
fill="#F62E49" stroke="none">
<path d="M4005 3309 c-613 -37 -1243 -143 -1741 -294 -103 -31 -131 -35 -365
-50 -569 -36 -1706 -131 -1746 -146 -29 -11 -29 -25 0 -44 20 -13 50 -12 287
10 565 52 1419 119 1426 112 2 -2 -72 -36 -164 -77 -392 -173 -628 -296 -852
-445 -630 -418 -795 -806 -495 -1167 190 -228 571 -416 1290 -633 738 -223
1450 -353 2285 -416 224 -17 921 -23 1165 -10 845 45 1677 184 2275 381 571
188 1044 477 1260 770 280 380 106 676 -559 951 -112 46 -114 47 -143 100
-174 319 -568 554 -1183 708 -464 116 -931 191 -1480 237 -225 19 -1030 27
-1260 13z m945 -49 c404 -32 1017 -101 1255 -141 604 -102 1111 -292 1402
-526 63 -51 273 -263 273 -276 0 -3 -93 33 -207 79 -580 235 -1201 387 -1976
484 -831 103 -1744 138 -2840 109 -225 -6 -411 -9 -413 -6 -4 3 451 129 621
171 117 29 655 97 915 116 156 11 789 5 970 -10z m-1050 -310 c228 -5 528 -16
665 -25 957 -59 1832 -201 2590 -420 167 -48 673 -210 713 -228 27 -12 58
-105 68 -200 9 -98 -28 -230 -87 -306 -26 -33 -24 -56 6 -69 59 -27 88 -3 144
118 41 88 55 187 42 285 -17 120 -18 117 27 98 292 -121 493 -270 567 -420 36
-74 45 -183 21 -264 -72 -246 -438 -548 -921 -760 -291 -127 -766 -267 -1220
-357 -897 -180 -1842 -226 -2820 -136 -839 76 -1728 274 -2475 551 -339 126
-554 247 -686 385 -121 128 -171 248 -162 392 9 144 71 264 215 416 285 301
910 658 1510 863 l131 46 239 11 c131 7 393 16 583 19 190 4 365 8 390 9 25 1
232 -3 460 -8z"/>
</g>
</svg>
