<?xml version="1.0" encoding="utf-8"?>
<svg width="383px" height="226px" viewBox="0 0 383 226" version="1.1" xmlns:xlink="http://www.w3.org/1999/xlink" xmlns="http://www.w3.org/2000/svg">
  <desc>Created with Lunacy</desc>
  <path d="M316.151 27.3256C318.182 29.9102 319.924 32.6394 321.374 35.4638C334.058 39.4986 347.282 45.1722 354.025 56.0168C363.244 70.8429 354.76 88.482 345.506 101.152C322.417 132.763 281.673 150.72 245.033 162.436C204.856 175.283 161.929 180.292 119.795 177.034C98.5022 175.389 77.3359 171.725 56.8227 165.888C41.295 161.469 23.9538 155.126 14.8518 141.12C-5.73333 109.44 33.6157 72.2913 56.537 54.085C57.4544 53.3542 58.3952 52.6576 59.3242 51.9439C41.4116 56.485 23.6293 61.3782 6.00432 66.3266C-0.0287434 68.0204 -2.58074 58.8335 3.42122 57.1492C29.0676 49.9493 55.3572 42.795 82.0026 36.6666C105.056 23.0909 130.496 13.4511 156.738 7.56817C192.74 -0.501518 231.173 -2.44852 267.698 3.33349C285.745 6.19024 304.625 12.6498 316.151 27.3256ZM234.262 9.62162C281.114 9.62162 301.446 25.3474 306.985 31.2153C238.965 7.16123 112.909 31.2153 112.909 31.2153C112.909 31.2153 119.707 27.6501 122.264 26.609C158.577 13.9844 175.027 9.62162 234.262 9.62162ZM324.994 109.915C312.467 121.151 297.479 129.605 282.243 136.871C214.721 169.074 134.739 175.918 62.4223 155.934C47.3955 151.782 27.3655 145.606 21.8324 129.546C15.5906 111.434 31.4193 92.8651 43.0408 80.4349C55.8602 66.7239 70.7608 55.0219 86.9739 45.3593C137.401 33.9309 188.758 26.4396 240.484 29.5863C260.905 30.8295 281.179 33.8517 300.953 38.9829C305.214 40.0884 310.266 41.2581 315.471 42.7031C318.61 49.8699 319.121 57.8611 315.321 65.9617C312.747 71.4439 321.113 76.2431 323.703 70.7214C327.465 62.6943 328.189 54.2881 326.463 46.246C334.899 49.4568 342.587 53.8523 346.738 60.4475C357.111 76.9204 336.73 99.3886 324.994 109.915Z" transform="matrix(0.9925461 0.1218693 -0.1218693 0.9925461 24.36768 2.674805)" id="Fill-1-Copy" fill="#F62E49" fill-rule="evenodd" stroke="#F1EDE7" stroke-width="4.8" />
</svg>