<svg id="Layer_1" data-name="Layer 1" xmlns="http://www.w3.org/2000/svg" viewBox="0 0 47.5 49"><defs><style>.cls-1{fill:none;stroke:#979797;stroke-linecap:round;stroke-linejoin:round;}</style></defs><title>Icon_AnyBudget</title><circle class="cls-1" cx="13.78" cy="24.33" r="3.02"/><circle class="cls-1" cx="26.02" cy="9.36" r="8.86"/><path class="cls-1" d="M36,18.7a8.83,8.83,0,0,1-13.31-1.1,23.34,23.34,0,0,0-5.4,1.71l-5-5v8.32a14.88,14.88,0,0,0-4,5.87.94.94,0,0,1-.89.65H5.28a1,1,0,0,0-1,1v5a1,1,0,0,0,1,1H8c1.37,4.6,5.35,8.4,10.65,10.41V51.5H23V47.85a25.46,25.46,0,0,0,8.65,0V51.5h4.37V46.66c6.61-2.52,11.17-7.83,11.17-14S42.61,21.21,36,18.7Z" transform="translate(-3.75 -3)"/><path class="cls-1" d="M32.27,9.86a2.5,2.5,0,1,0-2.5,2.5,2.5,2.5,0,1,1-2.5,2.5" transform="translate(-3.75 -3)"/><line class="cls-1" x1="26.02" y1="15.13" x2="26.02" y2="14.36"/><line class="cls-1" x1="26.02" y1="4.36" x2="26.02" y2="3.58"/><line class="cls-1" x1="20.52" y1="21.73" x2="31.52" y2="21.73"/><path class="cls-1" d="M47.13,34.13s1.6,1.23-.5,10.25c-1.83,7.87,6.71.12,3.32-.13" transform="translate(-3.75 -3)"/></svg>