<svg id="Layer_1" data-name="Layer 1" xmlns="http://www.w3.org/2000/svg" viewBox="0 0 49 45.31"><defs><style>.cls-1{fill:none;stroke:#979797;stroke-linecap:round;stroke-linejoin:round;}</style></defs><title>Icon_BestStylistsChoice</title><path class="cls-1" d="M40.51,18.27H29.08a1.5,1.5,0,0,1-1.5-1.5V5.35Z" transform="translate(-3 -4.85)"/><line class="cls-1" x1="5.12" y1="5.12" x2="18.44" y2="5.12"/><line class="cls-1" x1="5.12" y1="11.52" x2="18.44" y2="11.52"/><line class="cls-1" x1="5.07" y1="19.22" x2="32.94" y2="19.22"/><line class="cls-1" x1="5.07" y1="25.77" x2="26.95" y2="25.77"/><line class="cls-1" x1="5.07" y1="32.32" x2="32.78" y2="32.32"/><line class="cls-1" x1="5.07" y1="38.88" x2="30.65" y2="38.88"/><polygon class="cls-1" points="37.51 17.78 40.1 25.77 48.5 25.77 41.71 30.71 44.3 38.69 37.51 33.76 30.71 38.69 33.31 30.71 26.51 25.77 34.91 25.77 37.51 17.78"/><path class="cls-1" d="M36.31,35.55l-6.8-4.93h8.4l2.6-8V18.27L27.58,5.35H5a1.5,1.5,0,0,0-1.5,1.5v41.3A1.5,1.5,0,0,0,5,49.65H39a1.5,1.5,0,0,0,1.5-1.5V38.6l-6.8,4.94Z" transform="translate(-3 -4.85)"/></svg>