<?xml version="1.0" encoding="utf-8"?>
<svg width="21px" height="21px" viewBox="0 0 21 21" version="1.1" xmlns:xlink="http://www.w3.org/1999/xlink" xmlns="http://www.w3.org/2000/svg">
  <desc>Created with Lunacy</desc>
  <path d="M20.1 8.94C20.18 8.94 20.25 9.07 20.31 9.33C20.37 9.59 20.4 9.86 20.4 10.14C20.4 10.46 20.37 10.75 20.31 11.01C20.25 11.27 20.18 11.4 20.1 11.4L11.46 11.4L11.46 20.04C11.46 20.12 11.3 20.19 10.98 20.25C10.66 20.31 10.34 20.34 10.02 20.34C9.3 20.34 8.94 20.28 8.94 20.16L8.94 11.4L0.3 11.4C0.22 11.4 0.15 11.26 0.09 10.98C0.0299997 10.7 0 10.4 0 10.08C0 9.8 0.0199998 9.54 0.06 9.3C0.1 9.06 0.16 8.94 0.24 8.94L8.94 8.94L8.94 0.3C8.94 0.22 9.07 0.15 9.33 0.09C9.59 0.0299997 9.88 0 10.2 0C10.52 0 10.81 0.0299997 11.07 0.09C11.33 0.15 11.46 0.22 11.46 0.3L11.46 8.94L20.1 8.94Z" id="icon/faq/plus" fill="#191919" stroke="none" />
</svg>