<svg width="1079" height="1996" xmlns="http://www.w3.org/2000/svg">

 <g>
  <title>background</title>
  <rect fill="none" id="canvas_background" height="1998" width="1081" y="-1" x="-1"/>
 </g>
 <g>
  <title>Layer 1</title>
  <path stroke="null" transform="rotate(2 605.6926879882734,1014.6751098632823) " id="svg_1" fill="#E7E1CF" d="m611.423266,2047.333421c2.248296,-3.702135 8.317489,-18.791452 13.466776,-35.191076c7.664793,-24.417449 13.440493,-50.956346 16.198022,-78.160795c3.471552,-34.265543 1.935089,-67.501559 -5.60705,-98.720121c-8.831104,-36.542979 -25.661014,-69.30063 -51.490678,-97.357818c-7.950622,-8.64178 -18.424415,-18.531471 -32.449706,-30.781793c-12.117579,-10.586441 -15.120418,-13.10306 -52.163086,-43.92645c-26.473598,-22.02562 -43.756892,-36.66777 -62.397047,-53.077794c-52.089712,-45.850312 -95.285899,-89.090411 -133.339369,-135.481484c-47.80021,-58.277421 -84.757349,-118.634692 -109.783627,-182.714897c-29.512871,-75.560981 -39.550126,-164.225023 -27.573785,-258.743845c13.081532,-103.247956 51.948572,-211.012308 117.23336,-318.389808c35.444878,-58.297179 88.565105,-113.895752 164.428928,-175.620526c31.089558,-25.296186 65.605769,-51.383755 109.474363,-83.099401c25.072931,-18.12694 114.615984,-81.71734 119.14981,-84.959827c56.055167,-40.073526 98.180319,-71.265049 138.795292,-103.278114c97.546241,-76.885846 173.671799,-173.090387 228.392006,-288.648492c0.744686,-1.571442 2.689632,-2.272609 4.344369,-1.565992c1.654737,0.706629 2.392852,2.553329 1.649261,4.124771c-55.126499,116.414441 -131.860948,213.389567 -230.18911,290.891049c-40.709153,32.086899 -82.908774,63.333538 -139.039505,103.46218c-4.553538,3.256007 -94.075784,66.831847 -119.122432,84.939029c-43.776604,31.64909 -78.199729,57.666985 -109.179774,82.872697c-75.346923,61.304644 -127.998435,116.413412 -163.012929,174.002402c-64.849693,106.662031 -103.426744,213.622521 -116.399946,316.008378c-11.854255,93.56209 -1.930008,181.227804 27.210838,255.832054c24.776699,63.44585 61.39851,123.251961 108.807212,181.051016c37.810352,46.099894 80.772182,89.10081 132.622061,134.743137c18.584304,16.368426 35.828173,30.968979 62.260156,52.963402c37.1029,30.864987 40.105738,33.381606 52.282455,44.020043c14.185179,12.395911 24.812291,22.431191 32.946894,31.270558c26.573255,28.86833 43.882831,62.551514 52.948292,100.072024c7.710789,31.915311 9.27901,65.81688 5.743941,100.706378c-2.801335,27.641218 -8.662454,54.564887 -16.442236,79.34631c-5.283987,16.836393 -11.510879,32.320882 -14.073476,36.53258c-0.906765,1.487093 -2.916323,1.996657 -4.48783,1.143918c-1.571507,-0.863138 -2.109214,-2.776601 -1.202449,-4.263694z"/>
 </g>
</svg>