<svg width="196" height="825" viewBox="0 0 196 825" fill="none" xmlns="http://www.w3.org/2000/svg">
<path d="M251.054 810.1C266.301 790.377 273.594 751.024 273.905 697.541C274.163 653.214 269.474 600.848 261.735 553.523C258.039 530.924 247.942 516.884 231.674 509.19C219.233 503.305 206.037 501.469 181.05 500.614C180.283 500.587 179.488 500.561 178.503 500.529C178.038 500.513 176.334 500.458 175.962 500.446C153.818 499.72 143.693 498.687 133.468 495.193C120.33 490.704 111.842 482.532 107.657 468.948C104.819 459.734 109.19 452.688 122.483 441.645C121.803 442.21 135.529 431.133 139.495 427.635C148.978 419.272 155.707 411.379 160.397 402.192C166.13 390.961 168.361 378.354 166.623 363.727C155.221 267.727 152.536 226.493 156.388 181.446C160.535 132.959 173.017 84.6601 201.954 2.49834C202.229 1.71696 201.818 0.860431 201.037 0.585233C200.256 0.310036 199.399 0.720361 199.124 1.50174C170.11 83.8822 157.572 132.4 153.399 181.191C149.524 226.504 152.219 267.883 163.644 364.081C165.312 378.12 163.187 390.128 157.725 400.828C153.232 409.629 146.735 417.251 137.511 425.385C133.603 428.831 119.931 439.865 120.566 439.337C113.894 444.88 109.837 448.978 107.154 453.302C103.86 458.61 102.989 463.986 104.79 469.832C109.269 484.372 118.484 493.244 132.498 498.032C143.106 501.657 153.412 502.709 175.863 503.444C176.237 503.456 177.94 503.512 178.404 503.527C179.388 503.559 180.182 503.586 180.947 503.612C205.533 504.454 218.443 506.25 230.391 511.901C245.744 519.164 255.234 532.358 258.774 554.007C266.488 601.176 271.162 653.378 270.905 697.524C270.598 750.382 263.399 789.226 248.68 808.265C248.174 808.92 248.294 809.862 248.95 810.369C249.605 810.876 250.547 810.755 251.054 810.1Z" fill="#E7E1CF"/>
</svg>
