<svg width="302" height="2455" viewBox="0 0 302 2455" fill="none" xmlns="http://www.w3.org/2000/svg">
<path d="M423.617 2452.22C423.696 2450.72 424.603 2448.79 427.034 2444.46C427.113 2444.31 429.484 2440.12 430.257 2438.73C431.627 2436.27 432.813 2434.05 433.949 2431.8C439.296 2421.21 442.841 2411.22 444.298 2400.89C446.14 2387.83 444.401 2375.21 438.348 2363.01C427.195 2340.54 401.861 2320.44 359.554 2303.39C342.318 2296.45 330.599 2276.06 322.29 2241.52C315.489 2213.24 311.169 2178.18 306.237 2118.61C305.645 2111.46 305.045 2104.01 304.255 2094.05C304.229 2093.72 302.694 2074.32 302.239 2068.62C300.549 2047.42 299.218 2031.53 297.772 2015.65C293.993 1974.13 289.901 1938.59 284.721 1904.6C267.848 1793.86 240.109 1706.84 194.837 1639.14C89.0594 1480.94 57.1481 1349.16 69.8288 1107.2C74.5049 1017.97 96.1932 886.654 128.95 749.057C163.737 602.934 207.847 462.374 254.088 354.498C299.756 247.958 319.655 133.738 313.786 11.8208C313.746 10.9934 314.384 10.2902 315.212 10.2505C316.039 10.2107 316.743 10.8492 316.782 11.6767C322.674 134.043 302.695 248.716 256.845 355.68C210.679 463.382 166.619 603.784 131.869 749.752C99.1503 887.187 77.49 1018.34 72.8247 1107.36C60.1764 1348.7 91.9327 1479.84 197.331 1637.47C242.89 1705.6 270.754 1793.01 287.687 1904.15C292.877 1938.21 296.976 1973.8 300.76 2015.38C302.206 2031.27 303.538 2047.18 305.23 2068.38C305.685 2074.08 307.219 2093.48 307.245 2093.81C308.035 2103.77 308.635 2111.22 309.227 2118.36C314.147 2177.78 318.453 2212.73 325.207 2240.82C333.309 2274.5 344.593 2294.13 360.675 2300.61C403.607 2317.91 429.513 2338.47 441.035 2361.68C447.369 2374.44 449.192 2387.68 447.268 2401.31C445.759 2412.01 442.11 2422.29 436.627 2433.15C435.471 2435.44 434.268 2437.69 432.879 2440.19C432.1 2441.59 429.724 2445.79 429.65 2445.92C427.536 2449.69 426.655 2451.56 426.612 2452.38C426.569 2453.21 425.863 2453.84 425.036 2453.8C424.209 2453.76 423.573 2453.05 423.617 2452.22Z" fill="#E7E1CF"/>
</svg>
