<svg width="813" height="1996" viewBox="0 0 813 1996" fill="none" xmlns="http://www.w3.org/2000/svg">
<path d="M411.923 1991.38C413.976 1987.82 419.518 1973.31 424.22 1957.54C431.219 1934.06 436.493 1908.54 439.011 1882.38C442.181 1849.43 440.778 1817.47 433.891 1787.45C425.827 1752.31 410.459 1720.81 386.873 1693.83C379.613 1685.52 370.049 1676.01 357.242 1664.23C346.177 1654.05 343.435 1651.63 309.61 1621.99C285.436 1600.81 269.654 1586.73 252.633 1570.95C205.068 1526.86 165.624 1485.28 130.876 1440.67C87.2279 1384.63 53.481 1326.59 30.6286 1264.97C3.67933 1192.31 -5.48605 1107.05 5.44998 1016.16C17.3952 916.876 52.8861 813.249 112.5 709.994C144.866 653.935 193.372 600.471 262.646 541.116C291.035 516.791 322.553 491.705 362.611 461.207C385.506 443.776 467.271 382.627 471.411 379.509C522.597 340.974 561.063 310.98 598.15 280.196C687.223 206.262 756.736 113.751 806.703 2.62947C807.383 1.11836 809.159 0.444112 810.67 1.1236C812.181 1.8031 812.855 3.5789 812.176 5.09001C761.838 117.035 691.769 210.287 601.982 284.813C564.809 315.668 526.275 345.715 475.02 384.303C470.862 387.434 389.116 448.569 366.245 465.981C326.271 496.415 294.838 521.434 266.549 545.672C197.747 604.623 149.669 657.616 117.696 712.994C58.4794 815.561 23.2533 918.415 11.407 1016.87C0.582451 1106.84 9.64464 1191.14 36.2542 1262.88C58.8787 1323.89 92.3194 1381.4 135.61 1436.98C170.136 1481.31 209.366 1522.66 256.712 1566.55C273.682 1582.29 289.428 1596.33 313.564 1617.48C347.444 1647.16 350.186 1649.58 361.305 1659.81C374.258 1671.73 383.962 1681.38 391.39 1689.88C415.655 1717.64 431.461 1750.03 439.739 1786.11C446.78 1816.8 448.212 1849.4 444.984 1882.95C442.426 1909.53 437.074 1935.42 429.97 1959.25C425.145 1975.44 419.459 1990.33 417.119 1994.38C416.291 1995.81 414.456 1996.3 413.021 1995.48C411.586 1994.65 411.095 1992.81 411.923 1991.38Z" fill="#E7E1CF"/>
</svg>
