<svg width="1919.9999999999998" height="600" xmlns="http://www.w3.org/2000/svg">
 <desc>Created with Lunacy</desc>

 <g>
  <title>background</title>
  <rect fill="none" id="canvas_background" height="602" width="1922" y="-1" x="-1"/>
 </g>
 <g>
  <title>Layer 1</title>
  <g id="фон/линия/4">
   <path fill="#E7E1CF" id="Path-Copy" d="m990.605642,596.119983c1.377657,-84.328603 3.870642,-132.651618 10.816412,-181.398455c8.759566,-61.477128 24.210881,-112.052152 49.073557,-155.592984c57.430319,-100.575758 166.859693,-164.519888 351.425878,-194.874214c34.413692,-5.660472 73.713023,-6.891445 121.387436,-4.510836c35.496489,1.772458 58.945943,3.948245 134.891411,11.847699c30.017764,3.122504 48.254939,4.926264 67.526381,6.600032c86.552131,7.520769 149.379153,7.519742 205.788328,-2.658423c69.116221,-12.470377 123.517308,-40.401838 164.366223,-87.91459c45.322755,-52.717546 69.8648,-158.32707 75.752459,-301.883857c4.884384,-119.096175 -3.641036,-259.824225 -21.37783,-387.017267c-8.448407,-60.510401 -35.886291,-98.050369 -81.455255,-118.637225c-19.241296,-8.704754 -41.591366,-14.382606 -68.278774,-17.909645c-20.939927,-2.770552 -41.775532,-4.066784 -75.400379,-5.191672c-2.191637,-0.068751 -4.477716,-0.146488 -7.289968,-0.236168c-1.333421,-0.041099 -6.203893,-0.199542 -7.277974,-0.228673c-17.959583,-0.574704 -30.862819,-1.074929 -41.92222,-1.723734c-8.074,-0.475944 -15.161625,-1.035928 -22.508601,-1.741297c-22.468918,-2.19177 -41.097351,-5.619128 -57.230764,-10.864335c-19.065672,-6.210329 -34.587049,-14.983639 -46.657131,-26.945032c-11.696031,-11.585913 -20.150618,-26.157514 -25.467996,-44.255208c-3.991784,-13.600628 -1.433288,-25.901433 7.330554,-38.485394c7.540773,-10.813452 19.077321,-21.389679 38.138056,-35.827449c-1.98462,1.494753 38.356885,-28.211478 50.019469,-37.574973c27.834759,-22.354399 47.74334,-43.4331 61.94841,-67.967356c17.387068,-30.00014 24.917447,-63.708038 21.322762,-102.883474c-11.847233,-129.155194 -17.594321,-205.570911 -20.008388,-275.551462c-2.819893,-81.473832 -0.514675,-148.972377 7.754747,-214.55343c16.418241,-130.395324 56.72486,-260.229993 147.337503,-481.032554c0.636956,-1.55309 -0.087261,-3.356395 -1.623112,-4.007594c-1.547845,-0.658693 -3.309926,0.06627 -3.946882,1.619359c-90.80298,221.267288 -131.248968,351.565181 -147.754094,482.60661c-8.312113,65.92959 -10.63304,133.760179 -7.804124,215.539819c2.428322,70.131205 8.176169,146.639115 20.038402,275.903739c3.47239,37.890001 -3.775533,70.331913 -20.521855,99.239925c-13.77416,23.777938 -33.212832,44.358156 -60.510967,66.280774c-11.549413,9.27579 -51.775497,38.904058 -49.88906,37.473025c-19.523163,14.790843 -31.44194,25.71189 -39.445861,37.186473c-9.765081,14.026154 -12.714654,28.233805 -8.170286,43.73894c11.401777,38.850906 36.742667,62.506745 76.104028,75.320791c6.368965,2.070358 16.465357,4.193583 26.492013,6.014753l32.000237,5.112549l43.046599,2.593086c7.07936,0.346368 14.501252,0.664972 21.779227,0.893645c1.076331,0.038875 5.944554,0.187574 7.277974,0.228673c2.814501,0.099423 5.088587,0.169666 7.280224,0.238417c33.438213,1.116661 54.130657,2.415155 74.81649,5.152002c26.147738,3.456634 47.952136,8.993626 66.594529,17.415862c43.634341,19.71983 69.749131,55.440809 77.905026,113.884028c17.685492,126.837468 26.197686,267.19705 21.324358,385.896572c-5.828043,142.259117 -30.119847,246.774301 -74.276832,298.139957c-39.887146,46.38859 -93.058836,73.688304 -160.904172,85.928906c-55.780329,10.065827 -118.148862,10.065687 -204.220015,2.58782c-19.228793,-1.671299 -37.438385,-3.471164 -67.424669,-6.590673c-76.065319,-7.91181 -99.566116,-10.092165 -135.212138,-11.872179c-48.061698,-2.399985 -87.759328,-1.156082 -122.647917,4.581186c-186.203362,30.624536 -297.217983,95.495011 -355.649062,197.821769c-25.284817,44.281784 -40.957393,95.580119 -49.818611,157.771418c-6.992795,49.074821 -9.49591,97.595789 -10.87754,182.170175c-0.027602,1.688926 1.300744,3.0899 2.966929,3.129156c1.666183,0.039246 3.039263,-1.298075 3.066853,-2.987008z"/>
  </g>
 </g>
</svg>