<?xml version="1.0" encoding="utf-8"?>
<svg width="1519px" height="2787px" viewBox="0 0 1519 2787" version="1.1" xmlns:xlink="http://www.w3.org/1999/xlink" xmlns="http://www.w3.org/2000/svg">
  <desc>Created with Lunacy</desc>
  <path d="M2.22056 5.84716C84.0779 26.1593 130.602 39.4587 176.537 57.1921C234.467 79.5565 280.27 105.988 317.103 140.009C402.182 218.592 439.871 339.601 427.929 526.265C425.702 561.069 418.061 599.638 405.018 645.555C395.306 679.743 387.91 702.103 363.129 774.325C353.335 802.871 347.475 820.235 341.508 838.635C314.711 921.278 300.579 982.495 297.807 1039.75C294.41 1109.9 309.388 1169.19 346.494 1219.68C387.664 1275.7 485.047 1323.37 623.6 1361.4C738.545 1392.95 877.583 1416.3 1005.5 1427.62C1066.37 1433.01 1109.12 1414.71 1139.43 1374.95C1152.23 1358.15 1162.79 1337.65 1172.23 1312.45C1179.64 1292.67 1185.6 1272.66 1194.26 1240.14C1194.82 1238.02 1195.4 1235.82 1196.13 1233.1C1196.47 1231.81 1197.71 1227.09 1197.99 1226.06C1205.95 1196 1210.3 1180.64 1215.86 1164.05C1223.04 1142.65 1230.58 1125.28 1239.32 1110.74C1259.67 1076.9 1286.66 1058.72 1324.92 1056.48C1339.07 1055.65 1350.48 1060.9 1360.76 1072.27C1369.61 1082.05 1377.32 1095.68 1387.1 1117.5C1386.08 1115.23 1405.96 1161.21 1412.46 1174.68C1427.98 1206.83 1444.04 1230.98 1464.74 1250.34C1490.07 1274.03 1521.22 1288.95 1560.19 1294.26C1688.71 1311.76 1764.46 1323.36 1833.19 1336.74C1913.2 1352.32 1978.46 1369.76 2040.5 1392.56C2163.85 1437.9 2281.3 1506.38 2476.06 1644.34C2477.43 1645.31 2479.34 1645 2480.33 1643.65C2481.32 1642.3 2481.01 1640.42 2479.63 1639.45C2284.47 1501.19 2166.61 1432.48 2042.64 1386.91C1980.26 1363.99 1914.69 1346.47 1834.37 1330.83C1765.5 1317.42 1689.66 1305.81 1561.03 1288.29C1523.33 1283.15 1493.36 1268.79 1468.96 1245.97C1448.89 1227.19 1433.21 1203.63 1417.99 1172.09C1411.55 1158.76 1391.73 1112.9 1392.7 1115.06C1382.68 1092.71 1374.72 1078.64 1365.33 1068.26C1353.86 1055.58 1340.69 1049.52 1324.55 1050.46C1284.14 1052.83 1255.38 1072.19 1234.05 1107.67C1225.05 1122.63 1217.36 1140.38 1210.05 1162.16C1204.43 1178.91 1200.05 1194.36 1192.06 1224.54C1191.79 1225.57 1190.54 1230.29 1190.2 1231.57C1189.48 1234.3 1188.9 1236.5 1188.33 1238.61C1179.72 1270.95 1173.81 1290.82 1166.49 1310.36C1157.24 1335.06 1146.94 1355.06 1134.53 1371.33C1105.51 1409.41 1064.82 1426.82 1006.05 1421.62C878.481 1410.32 739.804 1387.04 625.244 1355.59C487.941 1317.9 391.569 1270.73 351.453 1216.14C315.227 1166.85 300.588 1108.9 303.922 1040.03C306.663 983.423 320.692 922.653 347.341 840.47C353.294 822.11 359.145 804.771 368.93 776.255C393.749 703.92 401.161 681.512 410.914 647.18C424.063 600.89 431.782 561.93 434.039 526.644C446.087 338.325 407.852 215.562 321.291 135.611C283.833 101.012 237.374 74.2022 178.771 51.5781C132.526 33.7251 85.8123 20.3714 3.71637 0C2.07693 -0.406812 0.413057 0.572334 0 2.18698C-0.413057 3.80163 0.581121 5.44035 2.22056 5.84716Z" transform="matrix(-0.224951 -0.9743701 0.9743701 -0.224951 557.9526 2786.656)" id="Path" fill="#E7E1CF" stroke="none" />
</svg>