<svg width="1920" height="1080" xmlns="http://www.w3.org/2000/svg">
 <desc>Created with Lunacy</desc>

 <g>
  <title>background</title>
  <rect fill="none" id="canvas_background" height="1082" width="1922" y="-1" x="-1"/>
 </g>
 <g>
  <title>Layer 1</title>
  <path fill="#E7E1CF" id="Path" d="m936.483711,3583.177031c1.377651,-84.328581 3.870546,-132.651986 10.816317,-181.398823c8.759791,-61.476154 24.210424,-112.05102 49.073849,-155.593052c57.430319,-100.575758 166.859693,-164.519888 351.425878,-194.874214c34.412943,-5.659272 73.712274,-6.890246 121.386462,-4.510611c35.496489,1.772458 58.947142,3.948995 134.89261,11.848449c30.017539,3.12153 48.254714,4.925289 67.525407,6.600257c86.55288,7.51957 149.379902,7.518543 205.791026,-2.660073c69.116221,-12.470377 123.517308,-40.401838 164.366223,-87.91459c45.32298,-52.716572 69.8648,-158.32707 75.752459,-301.883857c4.884384,-119.096175 -3.640811,-259.823251 -21.385999,-387.008196c-8.440913,-60.522394 -35.888541,-98.060112 -81.447761,-118.649218c-19.24879,-8.69276 -41.59886,-14.370613 -68.276524,-17.899902c-20.939927,-2.770552 -41.777781,-4.076528 -75.412372,-5.199166c-2.191637,-0.068751 -4.465723,-0.138994 -7.280224,-0.238417c-1.333421,-0.041099 -6.211387,-0.187549 -7.277974,-0.228673c-31.080175,-0.993959 -47.025037,-1.777222 -64.440564,-3.462782c-22.466668,-2.182026 -41.087607,-5.621378 -57.22102,-10.866585c-37.550437,-12.21609 -61.335913,-34.42473 -72.125127,-71.200239c-3.991784,-13.600628 -1.443032,-25.899183 7.32306,-38.473401c7.538523,-10.823196 19.084815,-21.401672 38.14555,-35.839442c-1.98237,1.504496 38.347141,-28.209228 50.009725,-37.572724c27.834759,-22.354399 47.753084,-43.435349 61.960403,-67.959861c17.384819,-30.009884 24.915197,-63.717781 21.322762,-102.883474c-11.859226,-129.162688 -17.596571,-205.580654 -20.020381,-275.558956c-2.817643,-81.464088 -0.504931,-148.974626 7.754747,-214.55343c16.430234,-130.38783 56.734604,-260.232243 147.347246,-481.034804c0.636956,-1.55309 -0.094755,-3.344402 -1.632856,-4.005344c-1.538101,-0.660943 -3.300182,0.06402 -3.934889,1.626853c-90.814973,221.259794 -131.251218,351.555437 -147.766088,482.599116c-8.300119,65.937084 -10.621046,133.767673 -7.79213,215.547313c2.426072,70.121462 8.173919,146.629371 20.038402,275.903739c3.47239,37.890001 -3.777783,70.322169 -20.524104,99.230181c-13.783904,23.780188 -33.212832,44.358156 -60.520711,66.283024c-11.539669,9.27354 -51.765753,38.901809 -49.879316,37.470775c-19.523163,14.790843 -31.44194,25.71189 -39.443612,37.196216c-9.774825,14.028404 -12.716903,28.224061 -8.170286,43.73894c11.399527,38.841162 36.732923,62.508995 76.101779,75.311047c16.601136,5.404064 35.626078,8.90409 58.492251,11.127302c17.584924,1.708031 33.624227,2.500279 64.828075,3.496475c1.064338,0.03138 5.944554,0.187574 7.268231,0.230923c2.821995,0.08743 5.096081,0.157673 7.280224,0.238417c33.447957,1.114411 54.138151,2.403162 74.823985,5.140009c26.147738,3.456634 47.952136,8.993626 66.596779,17.425606c43.632091,19.710086 69.749131,55.440809 77.902777,113.874285c17.686392,126.841366 26.198586,267.200947 21.325033,385.899495c-5.837562,142.262341 -30.119622,246.775275 -74.286351,298.143181c-39.877627,46.385366 -93.049317,73.68508 -160.904172,85.928906c-55.772759,10.063053 -118.141067,10.063887 -204.212445,2.585046c-19.228568,-1.670325 -37.43936,-3.470939 -67.425643,-6.590448c-76.06412,-7.911061 -99.565142,-10.09239 -135.211163,-11.872404c-48.061473,-2.399011 -87.759328,-1.156082 -122.648666,4.582385c-186.202613,30.623336 -297.218208,95.494037 -355.648088,197.821544c-25.286017,44.281035 -40.957686,95.580187 -49.819129,157.770512c-6.99257,49.075795 -9.495723,97.596156 -10.877444,182.170543c-0.02759,1.688934 1.300744,3.0899 2.966929,3.129156c1.666185,0.039256 3.039263,-1.298075 3.066853,-2.987008z"/>
 </g>
</svg>