<svg width="320" height="474" xmlns="http://www.w3.org/2000/svg">

 <g>
  <title>background</title>
  <rect fill="none" id="canvas_background" height="476" width="322" y="-1" x="-1"/>
 </g>
 <g>
  <title>Layer 1</title>
  <path id="svg_1" fill="#E7E1CF" d="m-25.62266,-380.29468c-14.14404,70.52068 23.83486,140.83268 113.65566,210.87968c75.034,58.514 112.076,91.398 136.114,122.543c25.439,32.96 35.472,63.942 35.472,107.342c0,15.47 -0.514,22.784 -4.059,64.867c-2.414,28.644 -3.585,47.155 -3.963,67.785c-0.492,26.827 0.686,52.163 3.932,77.428c7.861,61.19 27.715,120.07 63.185,179.222c0.426,0.71 1.347,0.941 2.058,0.515c0.71,-0.426 0.941,-1.348 0.515,-2.058c-35.253,-58.789 -54.973,-117.273 -62.783,-178.061c-3.226,-25.111 -4.397,-50.303 -3.908,-76.991c0.377,-20.549 1.545,-39.005 3.953,-67.588c3.555,-42.196 4.07,-49.525 4.07,-65.119c0,-44.048 -10.242,-75.676 -36.097,-109.175c-24.243,-31.41 -61.414,-64.408 -136.644,-123.076c-89.0158,-69.418 -126.4418,-138.707 -112.55924,-207.92374c0.16291,-0.81225 -0.363481,-1.602771 -1.175732,-1.765681c-0.812251,-0.16291 -1.602778,0.363485 -1.765688,1.175741z"/>
 </g>
</svg>