<svg width="700" height="63" xmlns="http://www.w3.org/2000/svg">

 <g>
  <title>background</title>
  <rect fill="none" id="canvas_background" height="65" width="702" y="-1" x="-1"/>
 </g>
 <g>
  <title>Layer 1</title>
  <path id="svg_1" fill="#E7E1CF" d="m-383.469,1453.47c1.378,-84.33 3.871,-132.65 10.817,-181.4c8.759,-61.48 24.21,-112.05 49.073,-155.59c57.431,-100.58 166.86,-164.523 351.4266,-194.878c34.4129,-5.659 73.7124,-6.89 121.3864,-4.51c35.497,1.772 58.947,3.948 134.892,11.848c30.018,3.122 48.255,4.925 67.526,6.6c86.553,7.52 149.38,7.519 205.786,-2.658c69.121,-12.472 123.524,-40.404 164.37,-87.916c45.32,-52.716 69.865,-158.327 75.754,-301.884c4.885,-119.097 -3.646,-259.823 -21.384,-387.011c-8.44,-60.5164 -35.886,-98.0557 -81.447,-118.6456c-19.25,-8.699 -41.599,-14.3745 -68.284,-17.9043c-20.935,-2.7692 -41.777,-4.0719 -75.404,-5.1925c-2.192,-0.0731 -4.469,-0.1469 -7.287,-0.237c-1.33,-0.0424 -6.206,-0.1974 -7.273,-0.2314c-31.079,-0.9921 -47.03,-1.7744 -64.439,-3.4668c-22.467,-2.18423 -41.093,-5.61433 -57.222,-10.86192c-37.554,-12.21868 -61.337,-34.42808 -72.127,-71.20008c-3.991,-13.6013 -1.439,-25.8994 7.325,-38.4794c7.538,-10.82 19.082,-21.394 38.141,-35.834c-1.979,1.5 38.353,-28.209 50.015,-37.573c27.835,-22.352 47.746,-43.434 61.958,-67.966c17.38,-30.001 24.914,-63.711 21.319,-102.883c-11.853,-129.16 -17.594,-205.576 -20.014,-275.552c-2.817,-81.47 -0.509,-148.974 7.753,-214.558c16.428,-130.391 56.728,-260.236 147.346,-481.036c0.638,-1.55 -0.092,-3.35 -1.631,-4c-1.539,-0.66 -3.305,0.07 -3.943,1.62c-90.806,221.26 -131.248,351.559 -147.758,482.601c-8.307,65.937 -10.626,133.766 -7.798,215.547c2.425,70.126 8.173,146.633 20.036,275.904c3.477,37.889 -3.771,70.323 -20.519,99.233c-13.778,23.783 -33.21,44.357 -60.516,66.284c-11.546,9.272 -51.772,38.902 -49.881,37.47c-19.528,14.796 -31.449,25.714 -39.445,37.192c-9.774,14.0287 -12.722,28.2324 -8.172,43.7386c11.4,38.8483 36.736,62.50746 76.102,75.31585c16.596,5.39975 35.63,8.90495 58.495,11.12785c17.578,1.7089 33.621,2.4954 64.826,3.4916c1.067,0.0341 5.943,0.189 7.272,0.2315c2.816,0.09 5.09,0.1638 7.279,0.2367c33.444,1.1145 54.13,2.4074 74.821,5.1443c26.148,3.4587 47.949,8.9951 66.599,17.4231c43.629,19.7169 69.748,55.4411 77.898,113.8775c17.69,126.84 26.198,267.201 21.329,385.899c-5.835,142.261 -30.126,246.776 -74.285,298.142c-39.878,46.386 -93.049,73.686 -160.904,85.929c-55.776,10.064 -118.144,10.065 -204.215,2.586c-19.229,-1.67 -37.439,-3.471 -67.426,-6.59c-76.064,-7.912 -99.565,-10.093 -135.211,-11.872c-48.062,-2.4 -87.7599,-1.157 -122.6485,4.581c-186.2025,30.624 -297.2185,95.497 -355.6485,197.817c-25.285,44.29 -40.958,95.59 -49.819,157.78c-6.993,49.07 -9.496,97.59 -10.877,182.17c-0.028,1.69 1.3,3.09 2.967,3.13c1.666,0.03 3.039,-1.3 3.066,-2.99z"/>
 </g>
</svg>