<svg width="1920" height="800" xmlns="http://www.w3.org/2000/svg">

 <g>
  <title>background</title>
  <rect fill="none" id="canvas_background" height="802" width="1922" y="-1" x="-1"/>
 </g>
 <g>
  <title>Layer 1</title>
  <path id="svg_1" fill="#E7E1CF" d="m1015.493152,1493.366738c1.378,-84.33 3.871,-132.65 10.816,-181.4c8.76,-61.48 24.211,-112.05 49.074,-155.59c57.43,-100.58 166.86,-164.52 351.426,-194.88c34.418,-5.66 73.708,-6.89 121.388,-4.51c35.5,1.77 58.95,3.95 134.89,11.85c30.02,3.12 48.26,4.92 67.53,6.6c86.55,7.52 149.38,7.52 205.78,-2.66c69.12,-12.47 123.53,-40.4 164.37,-87.91c45.32,-52.72 69.87,-158.33 75.76,-301.89c4.88,-119.1 -3.65,-259.82 -21.39,-387.01c-8.44,-60.52 -35.88,-98.06 -81.44,-118.64c-19.25,-8.7 -41.6,-14.38 -68.29,-17.91c-20.93,-2.77 -41.78,-4.07 -75.4,-5.19c-2.19,-0.07 -4.47,-0.15 -7.29,-0.24c-1.33,-0.04 -6.2,-0.2 -7.27,-0.23c-31.08,-0.99 -47.03,-1.77 -64.44,-3.47c-22.47,-2.18 -41.09,-5.61 -57.22,-10.86c-37.56,-12.22 -61.34,-34.43 -72.13,-71.2c-3.99,-13.6 -1.44,-25.9 7.32,-38.48c7.54,-10.82 19.09,-21.39 38.15,-35.83c-1.98,1.5 38.35,-28.21 50.01,-37.58c27.84,-22.35 47.75,-43.43 61.96,-67.96c17.38,-30 24.91,-63.71 21.32,-102.885c-11.86,-129.16 -17.6,-205.575 -20.02,-275.551c-2.81,-81.47 -0.51,-148.975 7.76,-214.558c16.42,-130.391 56.73,-260.232 147.34,-481.03166c0.64,-1.55609 -0.09,-3.35047 -1.63,-4.00838c-1.54,-0.65791 -3.3,0.07013 -3.94,1.62623c-90.81,221.25881 -131.25,351.55581 -147.76,482.59881c-8.31,65.937 -10.63,133.765 -7.8,215.546c2.43,70.126 8.18,146.634 20.04,275.905c3.48,37.888 -3.77,70.328 -20.52,99.228c-13.78,23.79 -33.21,44.36 -60.52,66.29c-11.54,9.27 -51.77,38.9 -49.88,37.47c-19.53,14.79 -31.45,25.71 -39.44,37.19c-9.78,14.03 -12.72,28.23 -8.17,43.74c11.4,38.85 36.73,62.51 76.1,75.32c16.59,5.39 35.63,8.9 58.49,11.12c17.58,1.71 33.62,2.5 64.83,3.49c1.07,0.04 5.94,0.19 7.27,0.24c2.82,0.09 5.09,0.16 7.28,0.23c33.44,1.12 54.13,2.41 74.82,5.15c26.15,3.46 47.95,8.99 66.6,17.42c43.63,19.72 69.75,55.44 77.9,113.88c17.69,126.84 26.2,267.2 21.33,385.9c-5.84,142.26 -30.13,246.77 -74.29,298.14c-39.88,46.38 -93.05,73.68 -160.9,85.93c-55.78,10.06 -118.15,10.06 -204.22,2.58c-19.23,-1.67 -37.44,-3.47 -67.42,-6.59c-76.07,-7.91 -99.57,-10.09 -135.21,-11.87c-48.07,-2.4 -87.76,-1.16 -122.653,4.58c-186.203,30.63 -297.218,95.5 -355.649,197.82c-25.285,44.29 -40.957,95.58 -49.818,157.78c-6.993,49.07 -9.496,97.59 -10.878,182.17c-0.027,1.68 1.301,3.09 2.967,3.12c1.666,0.04 3.039,-1.29 3.067,-2.98z"/>
 </g>
</svg>