<svg width="320" height="833" viewBox="0 0 320 833" fill="none" xmlns="http://www.w3.org/2000/svg">
<path d="M-1.62266 1.70532C-15.7667 72.226 22.2122 142.538 112.033 212.585C187.067 271.099 224.109 303.983 248.147 335.128C273.586 368.088 283.619 399.07 283.619 442.47C283.619 457.94 283.105 465.254 279.56 507.337C277.146 535.981 275.975 554.492 275.597 575.122C275.105 601.949 276.283 627.285 279.529 652.55C287.39 713.74 307.244 772.62 342.714 831.772C343.14 832.482 344.061 832.713 344.772 832.287C345.482 831.861 345.713 830.939 345.287 830.229C310.034 771.44 290.314 712.956 282.504 652.168C279.278 627.057 278.107 601.865 278.596 575.177C278.973 554.628 280.141 536.172 282.549 507.589C286.104 465.393 286.619 458.064 286.619 442.47C286.619 398.422 276.377 366.794 250.522 333.295C226.279 301.885 189.108 268.887 113.878 210.219C24.8622 140.801 -12.5638 71.512 1.31876 2.29526C1.48167 1.48301 0.955279 0.692489 0.143028 0.529579C-0.669223 0.366669 -1.45975 0.893064 -1.62266 1.70532Z" fill="#E7E1CF"/>
</svg>
