<?xml version="1.0" encoding="utf-8"?>
<svg width="158px" height="54px" viewBox="0 0 158 54" version="1.1" xmlns:xlink="http://www.w3.org/1999/xlink" xmlns="http://www.w3.org/2000/svg">
  <desc>Created with Lunacy</desc>
  <g id="Logo_футер">
    <g id="Logo_футер" transform="translate(8 5)">
      <path d="M38.6492 38.0978L38.6492 38.7586L21.1414 38.7586L21.1414 38.0978C25.4913 38.0978 22.4079 31.9317 22.4079 31.9317L20.7011 28.0232L8.80915 28.0232C8.25833 29.3442 7.04732 38.3182 14.6999 38.0978L14.6999 38.7586L0 38.7586L0 38.0978C1.48699 37.9879 3.68914 37.9879 8.20336 27.3069L20.4257 27.3069L14.0397 12.2773L18.8293 0L19.4345 0C33.1438 32.1521 33.8596 33.8034 33.8596 33.8034C35.7863 38.2083 37.3832 37.9879 38.6492 38.0978" transform="translate(0 2.312481)" id="Fill-5" fill="#000000" stroke="none" />
      <path d="M13.2134 41.0712L0.661331 41.0712L0.661331 40.4104C2.75297 39.8052 2.8629 37.4926 2.8629 34.6297L2.8629 6.44153C2.8629 4.51423 2.25769 3.68856 0 2.8629L0 2.20215L10.9563 0L10.9563 34.6297C10.9563 37.6581 11.2317 39.8596 13.2134 40.4104L13.2134 41.0712Z" transform="translate(40.46576 0)" id="Fill-7" fill="#000000" stroke="none" />
      <path d="M19.3796 29.0693C18.4989 31.8217 15.1957 34.4648 11.3417 34.4648C6.99236 34.4648 3.19328 32.7035 3.19328 26.041L3.19328 9.24947L0.110508 9.24947L0 8.53374L3.19328 8.53374L3.19328 1.15604L11.2867 0L11.2867 8.53374L18.1136 8.53374L18.0037 9.24947L11.2867 9.24947L11.2867 25.8761C11.2867 28.9594 12.4977 30.5008 15.4706 30.5008C17.0675 30.5008 18.2235 29.5097 18.7743 28.739L19.3796 29.0693Z" transform="translate(55.82592 7.101947)" id="Fill-9" fill="#000000" stroke="none" />
      <path d="M23.4535 18.4984L24.1692 18.7738C23.3435 22.2425 19.7099 26.3713 12.6077 26.3713C5.39543 26.3713 0 20.2052 0 13.2684C0 5.06505 5.67084 0.385347 12.3872 0L12.3872 0.715153C10.0751 1.8168 8.69865 7.21223 8.69865 11.9469L17.5628 11.9469C17.5628 5.83574 16.4617 1.59635 14.3145 0.715153L14.3145 0C20.7011 0.274839 24.9399 3.6336 24.9399 12.6626L8.69865 12.6626C8.91909 19.5445 11.6165 22.022 15.3057 22.8483C18.1686 23.5084 22.1875 22.1325 23.4535 18.4984" transform="translate(77.7935 15.19526)" id="Fill-11" fill="#000000" stroke="none" />
      <path d="M13.2129 25.931L13.2129 25.2703C11.2306 24.7195 10.9558 22.5179 10.9558 19.4895L10.9558 0L0 2.25711L0 2.97284C2.25711 3.96398 2.80736 4.73467 2.80736 6.66198L2.80736 19.4895C2.80736 22.2974 2.7524 24.6095 0.660185 25.2703L0.660185 25.931L13.2129 25.931ZM23.1781 7.65254C24.8294 5.78077 24.6095 2.80794 22.6822 1.15604C21.3613 0 19.1591 -0.275411 17.8376 0.330379C16.5161 0.936169 14.8648 1.54139 12.1668 5.22995L12.662 5.83574C13.9836 4.56977 15.1402 4.62473 15.1402 5.12002C15.1402 6.22109 15.6904 7.26719 16.6266 8.1484C18.6083 9.79972 21.4712 9.57927 23.1781 7.65254Z" transform="translate(105.707 15.14012)" id="Fill-13" fill="#000000" fill-rule="evenodd" stroke="none" />
      <path d="M0 5.22995C0 2.36705 2.31208 0 5.17498 0C7.98292 0 10.295 2.36705 10.295 5.22995C10.295 8.09286 7.98292 10.35 5.17498 10.35C2.31208 10.35 0 8.09286 0 5.22995" transform="translate(131.6938 30.99614)" id="Fill-15" fill="#000000" stroke="none" />
    </g>
  </g>
</svg>