<svg width="383" height="226" xmlns="http://www.w3.org/2000/svg">
 <desc>Created with Lunacy</desc>

 <g>
  <title>background</title>
  <rect fill="none" id="canvas_background" height="402" width="582" y="-1" x="-1"/>
 </g>
 <g>
  <title>Layer 1</title>
  <path stroke-width="4.8" stroke="#F1EDE7" fill-rule="evenodd" fill="#F62E49" id="Fill-1-Copy" d="m334.83197,68.32582c1.70088,2.81285 3.09729,5.73401 4.19227,8.71407c12.09774,5.55051 24.53173,12.79342 29.90284,24.37895c7.34344,15.8391 -3.22698,32.31278 -13.95609,43.76056c-26.76931,28.56154 -69.39801,41.41924 -107.19272,48.58262c-41.44318,7.8549 -84.66065,7.59508 -126.08354,-0.77348c-20.93361,-4.22767 -41.49561,-10.44388 -61.14456,-18.7373c-14.87341,-6.27842 -31.31234,-14.6875 -38.63959,-29.69835c-16.57087,-33.95256 21.41215,-62.22893 46.38139,-77.50611c-14.385,8.41655 8.4652,-4.7903 9.22735,-5.38546c-18.33251,2.32425 15.99867,-2.20955 -55.27525,7.57744c-6.19451,0.94593 -7.60789,-8.48351 -1.4454,-9.4238c26.33266,-4.02072 53.29819,-7.9178 80.49184,-10.75326c24.53602,-10.66501 50.96119,-17.1326 77.72453,-19.77359c36.7171,-3.622 75.1009,-0.87068 110.649,9.31951c17.56433,5.03483 35.51637,13.74713 45.16793,29.7182zm-79.12104,-27.55177c46.50277,5.70982 64.76673,23.79623 69.54933,30.29543c-71.94986,-32.16433 -192.62938,-23.65191 -192.62938,-23.65191c0,0 2.14117,-1.57195 4.80599,-2.29367c37.58087,-8.10506 59.4806,-11.56878 118.27406,-4.34985zm77.83301,110.60325c-13.80295,9.62559 -29.70951,16.19 -45.71744,21.54504c-70.94326,23.7341 -151.16315,20.77974 -220.50538,-7.86849c-14.40879,-5.95236 -33.53682,-14.52336 -37.07146,-31.13797c-3.98797,-18.73768 13.98572,-35.23913 27.03545,-46.16038c14.3948,-12.0465 30.61045,-21.84535 47.88027,-29.46005c51.44399,-5.1977 103.33114,-6.37432 154.28809,3.05274c20.11728,3.72262 39.87185,9.19308 58.87312,16.69587c4.09451,1.61655 8.9663,3.39321 13.9564,5.46177c2.24219,7.49593 1.7755,15.48984 -2.98339,23.06695c-3.22292,5.12765 4.49584,10.91063 7.73946,5.74573c4.71222,-7.50879 6.45528,-15.7641 5.72223,-23.9566c7.98182,4.21496 15.07684,9.51462 18.39315,16.56654c8.28814,17.61427 -14.67913,37.43117 -27.6105,46.44885z"/>
  <path id="svg_2" d="m67.46656,62.93324c0,0 8.79999,-1 8.79999,-1c-4.4,1.4 -8.79999,1 -8.79999,1z" fill-opacity="null" stroke-opacity="null" stroke-width="4.8" stroke="#F1EDE7" fill="#F62E49"/>
 </g>
</svg>