<?xml version="1.0" encoding="utf-8"?>
<svg width="466px" height="231px" viewBox="0 0 466 231" version="1.1" xmlns:xlink="http://www.w3.org/1999/xlink" xmlns="http://www.w3.org/2000/svg">
  <desc>Created with Lunacy</desc>
  <path d="M389.964 26.2655C392.469 28.7499 394.617 31.3732 396.406 34.0881C412.051 37.9664 428.363 43.4198 436.68 53.8437C448.051 68.0947 437.586 85.0496 426.172 97.2279C397.693 127.612 347.436 144.873 302.242 156.134C252.685 168.483 199.735 173.298 147.764 170.166C121.5 168.585 95.3918 165.064 70.0893 159.453C50.9363 155.205 29.5464 149.108 18.3193 135.645C-7.07191 105.195 41.464 69.4869 69.7369 51.9869C70.8685 51.2844 72.0288 50.6148 73.1748 49.9288C51.0801 54.2937 29.146 58.9971 7.40616 63.7536C-0.0354542 65.3817 -3.18328 56.5512 4.21998 54.9322C35.854 48.0116 68.2817 41.1349 101.148 35.2442C129.584 22.1951 160.964 12.9292 193.331 7.27458C237.739 -0.482062 285.146 -2.35354 330.198 3.20417C352.458 5.9501 375.747 12.1591 389.964 26.2655ZM288.956 9.24837C346.747 9.24837 371.826 24.3641 378.657 30.0043C294.757 6.88342 139.27 30.0043 139.27 30.0043C139.27 30.0043 147.655 26.5774 150.81 25.5767C195.601 13.4419 215.891 9.24837 288.956 9.24837ZM400.871 105.651C385.42 116.451 366.933 124.577 348.139 131.562C264.853 162.515 166.197 169.094 76.9962 149.885C58.461 145.894 33.7547 139.957 26.9297 124.521C19.2306 107.111 38.7548 89.2625 53.0897 77.3146C68.902 64.1355 87.2816 52.8875 107.28 43.5997C169.481 32.6146 232.828 25.4139 296.631 28.4386C321.819 29.6335 346.827 32.5385 371.217 37.4707C376.473 38.5333 382.705 39.6575 389.125 41.0465C392.997 47.9353 393.627 55.6165 388.94 63.4029C385.765 68.6724 396.084 73.2854 399.278 67.9779C403.919 60.2622 404.813 52.1821 402.684 44.4519C413.089 47.5382 422.572 51.7632 427.692 58.1026C440.487 73.9364 415.347 95.533 400.871 105.651Z" transform="matrix(0.9925461 0.1218693 -0.1218693 0.9925461 24.08301 3.231934)" id="Fill-1-Copy" fill="#F62E49" fill-rule="evenodd" stroke="#F1EDE7" stroke-width="5.8" />
</svg>