<?xml version="1.0" encoding="utf-8"?>
<svg width="489px" height="442px" viewBox="0 0 489 442" version="1.1" xmlns:xlink="http://www.w3.org/1999/xlink" xmlns="http://www.w3.org/2000/svg">
  <desc>Created with Lunacy</desc>
  <path d="M231.383 49.1355C265.035 43.3791 297.319 45.6405 325.269 54.9519C339.462 59.6804 352.019 66.0693 362.559 73.6212C364.408 58.8734 361.107 46.3572 352.061 36.936C323.991 7.70087 277.596 -1.38455 223.41 6.97196C179.003 13.8203 133.922 32.5124 115.905 49.991L113.121 47.1174C131.814 28.9825 177.643 9.98034 222.801 3.01621C278.146 -5.51905 325.806 3.81418 354.945 34.163C365.43 45.0825 368.924 59.514 366.265 76.3895C392.91 97.1316 405.054 125.628 395.601 152.61L391.826 151.286C400.445 126.686 389.67 100.449 365.436 80.8293C358.727 112.028 332.222 150.881 290.835 191.116C228.053 252.151 146.407 300.847 89.3204 308.683C30.8697 316.706 -3.31291 292.974 0.254249 249.611C3.91596 205.099 46.358 148.679 119.035 97.5399C155.954 71.5619 194.01 55.5284 231.383 49.1355ZM88.7767 304.718C144.877 297.017 225.822 248.739 288.048 188.245C329.93 147.528 356.125 108.481 361.86 78.0551C351.343 70.2349 338.585 63.6069 324.005 58.7494C296.687 49.6486 265.069 47.4338 232.057 53.0807C195.28 59.3717 157.777 75.172 121.336 100.814C49.5343 151.337 7.78678 206.833 4.24077 249.939C0.911068 290.416 32.6145 312.427 88.7767 304.718Z" transform="matrix(0.9205049 0.3907311 -0.3907311 0.9205049 121.2158 0)" id="Path-3-Copy" fill="#F62E49" fill-rule="evenodd" stroke="none" />
</svg>