<svg width="54" height="54" xmlns="http://www.w3.org/2000/svg">
 <desc>Created with Lunacy</desc>

 <g>
  <title>background</title>
  <rect fill="none" id="canvas_background" height="56" width="56" y="-1" x="-1"/>
 </g>
 <g>
  <title>Layer 1</title>
  <g id="Logo_футер">
   <g id="Logo_футер">
    <path fill="#bb9f81" id="Fill-5" d="m39.116491,45.083186l0,0.6608l-17.5078,0l0,-0.6608c4.3499,0 1.2665,-6.1661 1.2665,-6.1661l-1.7068,-3.9085l-11.89195,0c-0.55082,1.321 -1.76183,10.295 5.89075,10.0746l0,0.6608l-14.6999,0l0,-0.6608c1.48699,-0.1099 3.68914,-0.1099 8.20336,-10.7909l12.22234,0l-6.386,-15.0296l4.7896,-12.2773l0.6052,0c13.7093,32.1521 14.4251,33.8034 14.4251,33.8034c1.9267,4.4049 3.5236,4.1845 4.7896,4.2944"/>
    <path fill="#bb9f81" id="Fill-15" d="m43.078141,41.117336c0,-2.8629 2.31208,-5.22995 5.17498,-5.22995c2.80794,0 5.12002,2.36705 5.12002,5.22995c0,2.86291 -2.31208,5.12005 -5.12002,5.12005c-2.8629,0 -5.17498,-2.25714 -5.17498,-5.12005"/>
   </g>
  </g>
 </g>
</svg>
