<?xml version="1.0" encoding="utf-8"?>
<svg width="72px" height="92px" viewBox="0 0 72 92" version="1.1" xmlns:xlink="http://www.w3.org/1999/xlink" xmlns="http://www.w3.org/2000/svg">
  <desc>Created with Lunacy</desc>
  <path d="M35.4225 50.9851L35.4953 45.9856C35.5034 45.4334 35.9576 44.9922 36.5098 45.0003C37.062 45.0083 37.5032 45.4625 37.4951 46.0147L37.4223 51.0142C37.4143 51.5664 36.9601 52.0076 36.4078 51.9995C35.8556 51.9915 35.4145 51.5373 35.4225 50.9851ZM35.2769 60.984L35.3497 55.9845C35.3577 55.4323 35.8119 54.9911 36.3642 54.9992C36.9164 55.0072 37.3575 55.4614 37.3495 56.0136L37.2767 61.0131C37.2686 61.5653 36.8144 62.0065 36.2622 61.9985C35.71 61.9904 35.2688 61.5362 35.2769 60.984ZM35.2041 65.9835L35.1313 70.9829C35.1232 71.5352 35.5644 71.9893 36.1166 71.9974C36.6688 72.0054 37.123 71.5643 37.1311 71.0121L37.2039 66.0126C37.2119 65.4604 36.7708 65.0062 36.2185 64.9981C35.6663 64.9901 35.2121 65.4312 35.2041 65.9835ZM35.0067 79.5382L35.0585 75.9824C35.0665 75.4302 35.5207 74.989 36.0729 74.9971C36.6251 75.0051 37.0663 75.4593 37.0583 76.0115L37.0065 79.5673C36.9984 80.1196 36.5442 80.5607 35.992 80.5527C35.4398 80.5446 34.9986 80.0904 35.0067 79.5382ZM21.5029 41.808C21.6656 41.6576 21.8187 41.5187 21.9616 41.3911C18.6362 35.1305 17.1862 28.6014 17.6187 21.8235L12.7912 23.7011C12.3636 23.8674 11.8778 23.7214 11.6126 23.3471L4.90762 13.8803C4.60798 13.4572 4.68134 12.8753 5.0766 12.5399L18.1047 1.48297C18.2361 1.3714 18.3942 1.29572 18.5635 1.26327L25.0624 0.0180143C25.578 -0.0807726 26.0821 0.235899 26.217 0.743215C27.7654 6.56729 31.2519 12.1594 36.6969 17.5214C37.0904 17.9089 37.0952 18.542 36.7077 18.9355C36.3202 19.3291 35.6871 19.3339 35.2936 18.9464C29.8825 13.6179 26.2914 8.02023 24.5377 2.15494L19.1983 3.17803L7.06922 13.4719L12.7936 21.5542L18.3893 19.3779C19.0879 19.1061 19.826 19.6712 19.746 20.4166C18.9728 27.6209 20.4205 34.5182 24.099 41.1357C24.3349 41.5602 24.2318 42.0928 23.8528 42.3999L23.8426 42.4083L23.7965 42.4465C23.7432 42.4911 23.6794 42.5452 23.6057 42.6088C23.3919 42.7934 23.1425 43.016 22.8605 43.2767C22.049 44.0268 21.1424 44.9288 20.1642 45.9825C17.3613 49.0017 14.5554 52.6245 11.9353 56.8485C7.56875 63.8877 4.17159 71.8684 2.11463 80.7889C2.08418 80.7678 2.05433 80.7469 2.02508 80.7263C1.89644 80.6358 1.7892 80.5571 1.71174 80.4976C1.67079 80.4657 1.67079 80.4657 1.65771 80.4551L1.68243 80.4772C1.70355 80.4962 1.70355 80.4962 1.77271 80.5743C1.83423 80.6354 1.83423 80.6354 1.97693 81.0126L1.99044 81.1052L1.98344 81.3559L1.76374 81.8427L1.33984 82.1415L1.10988 82.1962C0.927796 82.1972 0.894776 82.1974 0.862221 82.1936C0.855009 82.1927 0.84782 82.1917 0.839039 82.1904C1.33093 82.2911 1.85342 81.9518 1.97173 81.4198C2.01862 81.209 2.06625 80.9987 2.11463 80.7889C2.4625 81.0303 2.88783 81.3055 3.38126 81.6025C4.91587 82.5262 6.78532 83.4715 8.97731 84.3723C15.1244 86.8986 22.5306 88.5818 31.1947 88.9763L35.1421 82.5206C35.4302 82.0494 36.0457 81.901 36.5169 82.1891C36.9881 82.4772 37.1365 83.0927 36.8484 83.5639L32.5939 90.5218C32.405 90.8307 32.064 91.0134 31.7022 90.9994C22.5474 90.6462 14.7156 88.8929 8.21707 86.2222C5.92993 85.2823 3.96999 84.2913 2.34981 83.316C1.77237 82.9684 1.27626 82.6451 0.873589 82.3616C0.722988 82.2555 0.593414 82.1605 0.492935 82.0833C0.430488 82.0349 0.430488 82.0349 0.380194 81.9939C0.355291 81.9731 0.355291 81.9731 0.317109 81.9386C0.290771 81.9146 0.290771 81.9146 0.218889 81.8335C0.156482 81.7712 0.156482 81.7712 0 81.3006L0.00699641 81.0498L0.0344577 80.989L0.0194304 80.9857C2.11072 71.5822 5.65195 63.1837 10.2357 55.7942C12.9265 51.4564 15.811 47.7321 18.6985 44.6217C19.712 43.53 20.6547 42.5921 21.5029 41.808ZM50.4924 41.808C50.3297 41.6576 50.1767 41.5187 50.0338 41.3911C53.3591 35.1305 54.8091 28.6014 54.3767 21.8235L59.2042 23.7011C59.6317 23.8674 60.1176 23.7214 60.3827 23.3471L67.0877 13.8803C67.3874 13.4572 67.314 12.8753 66.9188 12.5399L53.8907 1.48297C53.7592 1.3714 53.6012 1.29572 53.4318 1.26327L46.933 0.0180143C46.4174 -0.0807726 45.9132 0.235899 45.7783 0.743215C44.23 6.56729 40.7435 12.1594 35.2985 17.5214C34.905 17.9089 34.9001 18.542 35.2876 18.9355C35.6751 19.3291 36.3083 19.3339 36.7018 18.9464C42.1128 13.6179 45.704 8.02023 47.4577 2.15494L52.7971 3.17803L64.9261 13.4719L59.2017 21.5542L53.6061 19.3779C52.9075 19.1061 52.1693 19.6712 52.2493 20.4166C53.0225 27.6209 51.5748 34.5182 47.8964 41.1357C47.6604 41.5602 47.7636 42.0928 48.1426 42.3999L48.1528 42.4083L48.1989 42.4465C48.2522 42.4911 48.3159 42.5452 48.3896 42.6088C48.6034 42.7934 48.8528 43.016 49.1349 43.2767C49.9464 44.0268 50.853 44.9288 51.8311 45.9825C54.634 49.0017 57.4399 52.6245 60.0601 56.8485C64.4266 63.8877 67.8238 71.8684 69.8807 80.7889C69.9112 80.7678 69.941 80.7469 69.9703 80.7263C70.0989 80.6358 70.2062 80.5571 70.2836 80.4976C70.3246 80.4657 70.3246 80.4657 70.3376 80.4551L70.3129 80.4772C70.2918 80.4962 70.2918 80.4962 70.2226 80.5743C70.1611 80.6354 70.1611 80.6354 70.0184 81.0126L70.0049 81.1052L70.0119 81.3559L70.2316 81.8427L70.6555 82.1415L70.8855 82.1962C71.0676 82.1972 71.1006 82.1974 71.1331 82.1936C71.1404 82.1927 71.1475 82.1917 71.1563 82.1904C70.6644 82.2911 70.1419 81.9518 70.0236 81.4198C69.9767 81.209 69.9291 80.9987 69.8807 80.7889C69.5329 81.0303 69.1075 81.3055 68.6141 81.6025C67.0795 82.5262 65.21 83.4715 63.0181 84.3723C56.871 86.8986 49.4648 88.5818 40.8007 88.9763L36.8533 82.5206C36.5652 82.0494 35.9497 81.901 35.4785 82.1891C35.0073 82.4772 34.8589 83.0927 35.147 83.5639L39.4015 90.5218C39.5903 90.8307 39.9314 91.0134 40.2932 90.9994C49.448 90.6462 57.2798 88.8929 63.7783 86.2222C66.0654 85.2823 68.0254 84.2913 69.6455 83.316C70.223 82.9684 70.7191 82.6451 71.1218 82.3616C71.2724 82.2555 71.4019 82.1605 71.5024 82.0833C71.5649 82.0349 71.5649 82.0349 71.6152 81.9939C71.6401 81.9731 71.6401 81.9731 71.6783 81.9386C71.7046 81.9146 71.7046 81.9146 71.7765 81.8335C71.8389 81.7712 71.8389 81.7712 71.9954 81.3006L71.9884 81.0498L71.9609 80.989L71.9759 80.9857C69.8846 71.5822 66.3434 63.1837 61.7597 55.7942C59.0688 51.4564 56.1844 47.7321 53.2969 44.6217C52.2834 43.53 51.3407 42.5921 50.4924 41.808ZM24.9355 3.82883C31.1792 8.04601 38.5588 8.04601 46.939 3.8963L46.0515 2.104C38.2759 5.95429 31.6555 5.95429 26.0549 2.17146L24.9355 3.82883Z" id="иконка/что-вы-получаете/1" fill="#979797" stroke="none" />
</svg>