<?xml version="1.0" encoding="utf-8"?>
<svg width="82px" height="83px" viewBox="0 0 82 83" version="1.1" xmlns:xlink="http://www.w3.org/1999/xlink" xmlns="http://www.w3.org/2000/svg">
  <desc>Created with Lunacy</desc>
  <path d="M21.7752 0.0345482L5 0.0345482C2.23858 0.0345482 -3.33067e-16 2.27312 0 5.03455L0 69.0345C2.77556e-16 71.796 2.23858 74.0345 5 74.0345L61 74.0345C63.7614 74.0345 66 71.796 66 69.0345L66 5.03455C66 2.27312 63.7614 0.0345482 61 0.0345482L46.785 0.0345482C46.2327 0.0345482 45.785 0.482263 45.785 1.03455C45.785 1.58683 46.2327 2.03455 46.785 2.03455L61 2.03455C62.6569 2.03455 64 3.37769 64 5.03455L64 69.0345C64 70.6914 62.6569 72.0345 61 72.0345L5 72.0345C3.34315 72.0345 2 70.6914 2 69.0345L2 5.03455C2 3.37769 3.34315 2.03455 5 2.03455L21.7752 2.03455C22.3275 2.03455 22.7752 1.58683 22.7752 1.03455C22.7752 0.482263 22.3275 0.0345482 21.7752 0.0345482ZM24.9258 22.337L11.8469 1.50287C11.5533 1.03511 10.9361 0.893964 10.4683 1.1876C10.0006 1.48124 9.85942 2.09847 10.1531 2.56623L23.9637 24.5662C24.325 25.1416 25.1425 25.1971 25.5781 24.6757L34.7674 13.6757C35.1215 13.2518 35.065 12.6212 34.6411 12.2671C34.2173 11.913 33.5866 11.9696 33.2326 12.3934L24.9258 22.337ZM57.1529 1.50287C57.4466 1.03511 58.0638 0.893964 58.5316 1.1876C58.9993 1.48124 59.1405 2.09847 58.8468 2.56623L45.0362 24.5662C44.6749 25.1416 43.8573 25.1971 43.4218 24.6757L34.2324 13.6757C33.8784 13.2518 33.9349 12.6212 34.3588 12.2671C34.7826 11.913 35.4133 11.9696 35.7673 12.3934L44.0741 22.337L57.1529 1.50287ZM65.7332 10.0345L77 10.0345C78.6569 10.0345 80 11.3777 80 13.0345L80 77.0345C80 78.6914 78.6569 80.0345 77 80.0345L21 80.0345C19.3431 80.0345 18 78.6914 18 77.0345L18 73.729C18 73.1767 17.5523 72.729 17 72.729C16.4477 72.729 16 73.1767 16 73.729L16 77.0345C16 79.796 18.2386 82.0345 21 82.0345L77 82.0345C79.7614 82.0345 82 79.796 82 77.0345L82 13.0345C82 10.2731 79.7614 8.03455 77 8.03455L65.7332 8.03455C65.1809 8.03455 64.7332 8.48226 64.7332 9.03455C64.7332 9.58683 65.1809 10.0345 65.7332 10.0345ZM33.5 17.0345L33.5 20.0345C33.5 20.5868 33.9477 21.0345 34.5 21.0345C35.0523 21.0345 35.5 20.5868 35.5 20.0345L35.5 17.0345C35.5 16.4823 35.0523 16.0345 34.5 16.0345C33.9477 16.0345 33.5 16.4823 33.5 17.0345ZM33.5 23.0345L33.5 26.0345C33.5 26.5868 33.9477 27.0345 34.5 27.0345C35.0523 27.0345 35.5 26.5868 35.5 26.0345L35.5 23.0345C35.5 22.4823 35.0523 22.0345 34.5 22.0345C33.9477 22.0345 33.5 22.4823 33.5 23.0345ZM33.5 32.0345L33.5 29.0345C33.5 28.4823 33.9477 28.0345 34.5 28.0345C35.0523 28.0345 35.5 28.4823 35.5 29.0345L35.5 32.0345C35.5 32.5868 35.0523 33.0345 34.5 33.0345C33.9477 33.0345 33.5 32.5868 33.5 32.0345ZM47.246 1.70711C47.876 1.07714 47.4298 0 46.5389 0L22.6208 0C21.7298 0 21.2837 1.07714 21.9136 1.70711L33.8727 13.6662C34.2633 14.0567 34.8964 14.0567 35.2869 13.6662L47.246 1.70711ZM34.5798 11.5449L25.035 2L44.1247 2L34.5798 11.5449Z" id="иконка/что-вы-получаете/2" fill="#979797" stroke="none" />
</svg>