<?xml version="1.0" encoding="utf-8"?>
<svg width="78px" height="87px" viewBox="0 0 78 87" version="1.1" xmlns:xlink="http://www.w3.org/1999/xlink" xmlns="http://www.w3.org/2000/svg">
  <desc>Created with Lunacy</desc>
  <path d="M47.6155 27.4143C47.6155 29.0993 46.2495 30.4652 44.5645 30.4652C42.8796 30.4652 41.5136 29.0993 41.5136 27.4143C41.5136 25.7293 42.8796 24.3633 44.5645 24.3633C46.2495 24.3633 47.6155 25.7293 47.6155 27.4143ZM43.5136 27.4143C43.5136 27.9947 43.9841 28.4652 44.5645 28.4652C45.145 28.4652 45.6155 27.9947 45.6155 27.4143C45.6155 26.8339 45.145 26.3633 44.5645 26.3633C43.9841 26.3633 43.5136 26.8339 43.5136 27.4143ZM24.371 44.475C24.371 44.2098 24.4763 43.9554 24.6639 43.7679L26.7505 41.6813L24.6971 39.8087C24.4894 39.6192 24.371 39.351 24.371 39.0698L24.371 30.1414C24.371 29.9571 24.4219 29.7765 24.518 29.6194L33.605 14.7701C33.7867 14.4731 34.1098 14.292 34.4579 14.292L53.9355 14.292C54.2806 14.292 54.6013 14.47 54.7839 14.7627L64.0478 29.6121C64.1468 29.7708 64.1993 29.9542 64.1993 30.1414L64.1993 38.821C64.1993 39.0862 64.094 39.3406 63.9065 39.5281L61.7865 41.648L63.9065 43.7679C64.094 43.9554 64.1993 44.2098 64.1993 44.475L64.1993 82.1114C64.1993 84.3205 62.4085 86.1114 60.1993 86.1114L28.371 86.1114C26.1618 86.1114 24.371 84.3205 24.371 82.1114L24.371 44.475ZM62.1993 30.4277L53.3807 16.292L35.0184 16.292L26.371 30.423L26.371 38.6284L28.8718 40.9091C29.2933 41.2934 29.3084 41.9518 28.9051 42.3551L26.371 44.8892L26.371 82.1114C26.371 83.216 27.2664 84.1114 28.371 84.1114L60.1993 84.1114C61.3039 84.1114 62.1993 83.216 62.1993 82.1114L62.1993 44.8892L59.6652 42.3551C59.2747 41.9646 59.2747 41.3314 59.6652 40.9409L62.1993 38.4068L62.1993 30.4277ZM16.9682 30.321L14.2724 31.5213C14.0301 31.6292 13.8406 31.8289 13.7455 32.0765L0.268797 67.1845C-0.528938 69.2627 0.509058 71.5941 2.58722 72.3918L25.0174 81.0019C25.533 81.1999 26.1114 80.9423 26.3093 80.4267C26.5072 79.9111 26.2497 79.3327 25.7341 79.1348L3.30396 70.5246C2.257 70.1228 1.73406 68.9482 2.13596 67.9013L15.4642 33.1799L18.7382 31.7222C19.2592 31.4903 19.481 30.8702 19.2253 30.3604L17.7079 27.3349L20.6485 19.6746L33.7856 9.58109L49.8124 15.7332C50.328 15.9311 50.9064 15.6736 51.1043 15.158C51.3022 14.6424 51.0447 14.064 50.5291 13.866L33.9791 7.51308C33.6541 7.38832 33.2876 7.44158 33.0115 7.65369L19.2066 18.2602C19.0605 18.3725 18.9483 18.5229 18.8822 18.6949L15.6826 27.0303C15.5818 27.2928 15.5962 27.5856 15.7223 27.837L16.9682 30.321ZM57.1276 17.0045C56.7397 16.6114 56.744 15.9782 57.1371 15.5904C58.8536 13.8969 60.526 13.0543 64.068 12.3532C64.109 12.1701 64.1492 11.9836 64.1884 11.7937C64.9358 8.18062 66.7689 4.62231 68.9634 2.34249C71.408 -0.19718 74.0973 -0.864409 75.7968 1.30167C79.1359 5.55733 75.5126 12.7157 68.8537 13.6166C67.6546 13.7788 66.612 13.9324 65.6969 14.087C63.9719 20.3825 60.7123 22.9936 54.2657 23.3617C50.1398 23.5973 47.3364 24.9668 45.7467 27.448C45.4487 27.913 44.8302 28.0484 44.3652 27.7505C43.9002 27.4526 43.7647 26.834 44.0627 26.369C46.0321 23.2951 49.4314 21.6345 54.1517 21.365C59.3632 21.0674 61.9608 19.2748 63.4874 14.5202C61.0183 15.0949 59.7834 15.7891 58.5418 17.0141C58.1486 17.402 57.5155 17.3977 57.1276 17.0045ZM74.2233 2.53624C73.4905 1.60221 72.1261 1.94072 70.4043 3.72948C68.5193 5.68779 66.8934 8.806 66.1935 11.9811C66.9234 11.8664 67.7176 11.7521 68.5856 11.6346C73.7979 10.9295 76.5471 5.49792 74.2233 2.53624Z" id="иконка/что-вы-получаете/4" fill="#979797" stroke="none" />
</svg>