<?xml version="1.0" encoding="utf-8"?>
<svg width="64px" height="89px" viewBox="0 0 64 89" version="1.1" xmlns:xlink="http://www.w3.org/1999/xlink" xmlns="http://www.w3.org/2000/svg">
  <desc>Created with Lunacy</desc>
  <path d="M31.382 49C20.3258 49 15.1766 41.8971 16.1091 28.2403C16.1449 27.7157 16.5809 27.3084 17.1068 27.3084L18.3645 27.3084C25.7492 27.3084 31.4942 25.0889 35.8242 21.3936C37.3341 20.1049 38.5595 18.7257 39.5218 17.35C39.8561 16.8721 40.1329 16.4305 40.355 16.0372C40.4841 15.8086 40.564 15.652 40.5976 15.5795C41.0481 14.6074 42.5049 14.9286 42.5049 16C42.5049 18.112 44.2149 19.3507 48.0923 19.7091C48.6067 19.7567 49.0002 20.1883 49.0002 20.7049L49.0002 28.3084C49.0002 31.6128 48.2708 35.8918 46.4491 39.667C43.6259 45.5176 38.7074 49 31.382 49ZM37.1225 22.9149C32.4385 26.9123 26.2366 29.3084 18.3645 29.3084L18.0498 29.3084C17.4658 41.2724 21.8559 47 31.382 47C37.893 47 42.1414 43.992 44.6479 38.7978C46.3188 35.335 47.0002 31.3376 47.0002 28.3084L47.0002 21.5956C44.083 21.1857 42.0877 20.1636 41.1389 18.5274C40.0866 20.0261 38.7561 21.5207 37.1225 22.9149ZM13.6904 50.9348L13.7153 50.9254L13.7965 50.8953C13.886 50.8623 13.9877 50.8255 14.0998 50.7857C14.4201 50.672 14.7567 50.5582 15.0923 50.4525C15.9876 50.1703 16.7205 49.9974 17.0512 49.9974L17.0512 49.9421L17.2595 49.9755L17.7885 49.6265C17.9567 49.7489 18.1619 49.8181 18.3771 49.8181L23.8327 49.8181C24.385 49.8181 24.8327 49.3703 24.8327 48.8181C24.8327 48.2658 24.385 47.8181 23.8327 47.8181L18.9687 47.8181L17.9277 45.923C17.429 45.0153 16.0487 45.3713 16.0512 46.407C16.053 47.1294 16.0541 47.7007 16.0543 48.1205C15.6031 48.2144 15.0808 48.3591 14.4911 48.545C14.2931 48.6074 14.0955 48.6721 13.901 48.7379C11.9995 43.7263 10.7611 34.8215 11.0403 26.694C11.3923 16.4499 13.9703 8.70201 18.6784 5.54871C25.7411 0.818395 32.5881 0.818395 39.4323 5.54092C39.8869 5.85458 40.5096 5.74035 40.8233 5.28577C41.137 4.8312 41.0227 4.20843 40.5682 3.89477C33.044 -1.29696 25.3055 -1.29696 17.5654 3.88698C12.1754 7.497 9.41348 15.7976 9.04147 26.6253C8.73592 35.5188 10.1888 45.2983 12.4188 50.4005C12.6322 50.8888 13.1911 51.124 13.6895 50.9351L13.6904 50.9348ZM38.975 49.0635C38.4228 49.0775 37.9866 49.5364 38.0005 50.0885C38.0145 50.6406 38.4734 51.0769 39.0255 51.0629C42.508 50.9748 49.7191 51.7498 50.3423 51.9514C50.8686 52.1217 51.4332 51.8324 51.6023 51.3057C56.1145 37.2507 57.2165 20.8782 54.6491 11.5619C52.9311 5.32756 48.1231 2.92857 40.6536 4.44467C40.1123 4.55453 39.7626 5.08236 39.8725 5.62361C39.9823 6.16486 40.5101 6.51457 41.0514 6.40471C47.5576 5.08412 51.3047 6.95374 52.721 12.0933C55.1258 20.8196 54.1413 36.3428 49.9603 49.8621C47.6142 49.517 42.0215 48.9865 38.975 49.0635ZM12.1872 55.4277C8.39913 56.5956 5.53237 59.7112 4.68324 63.5833L0.0234401 84.832C-0.0968946 85.3807 0.258258 85.9209 0.809739 86.0279C21.0758 89.9604 41.5363 89.9904 62.1845 86.1185C62.7274 86.0167 63.0849 85.4941 62.9831 84.9513C62.8813 84.4085 62.3587 84.051 61.8159 84.1528C41.7562 87.9143 21.8854 87.9487 2.19717 84.2565L6.63682 64.0117C7.33156 60.8437 9.67709 58.2945 12.7764 57.339L25.6948 53.3564C26.1142 53.2271 26.4002 52.8395 26.4002 52.4007L26.4002 47C26.4002 46.4477 25.9525 46 25.4002 46C24.8479 46 24.4002 46.4477 24.4002 47L24.4002 51.6626L12.1872 55.4277ZM50.9289 55.3937C54.7076 56.5766 57.5589 59.699 58.3948 63.5693L62.9775 84.7889C63.0941 85.3287 62.751 85.8609 62.2111 85.9775C61.6713 86.0941 61.1391 85.7509 61.0226 85.2111L56.4399 63.9915C55.756 60.8249 53.4231 58.2702 50.3314 57.3024L37.7013 53.3485C37.284 53.2179 37 52.8314 37 52.3942L37 47C37 46.4477 37.4477 46 38 46C38.5523 46 39 46.4477 39 47L39 51.6594L50.9289 55.3937ZM18.0404 55.2805C19.9178 61.7048 24.2646 65 30.8725 65C37.4718 65 41.897 61.7161 43.9525 55.3053L42.048 54.6947C40.2559 60.2839 36.5958 63 30.8725 63C25.1576 63 21.5895 60.2952 19.9601 54.7195L18.0404 55.2805ZM30.5002 68L30.5002 71C30.5002 71.5523 30.9479 72 31.5002 72C32.0525 72 32.5002 71.5523 32.5002 71L32.5002 68C32.5002 67.4477 32.0525 67 31.5002 67C30.9479 67 30.5002 67.4477 30.5002 68ZM30.5002 74L30.5002 77C30.5002 77.5523 30.9479 78 31.5002 78C32.0525 78 32.5002 77.5523 32.5002 77L32.5002 74C32.5002 73.4477 32.0525 73 31.5002 73C30.9479 73 30.5002 73.4477 30.5002 74ZM30.5002 83L30.5002 80C30.5002 79.4477 30.9479 79 31.5002 79C32.0525 79 32.5002 79.4477 32.5002 80L32.5002 83C32.5002 83.5523 32.0525 84 31.5002 84C30.9479 84 30.5002 83.5523 30.5002 83Z" id="иконка/что-вы-получаете/3" fill="#979797" stroke="none" />
</svg>