<?xml version="1.0" encoding="utf-8"?>
<svg width="46px" height="45px" viewBox="0 0 46 45" version="1.1" xmlns:xlink="http://www.w3.org/1999/xlink" xmlns="http://www.w3.org/2000/svg">
  <desc>Created with Lunacy</desc>
  <path d="M23.781 0.851397L23.6363 0.951165L23.4917 0.851397C21.5709 -0.470649 18.9786 -0.231719 17.3277 1.42033C15.4402 3.31028 15.4402 6.38516 17.3277 8.27461L23.5837 14.5374L23.6358 14.4853L23.6885 14.538L29.945 8.27461C31.8325 6.38516 31.8325 3.31028 29.945 1.42033C28.2941 -0.231207 25.7022 -0.471161 23.781 0.851397ZM28.7623 7.09121L23.6885 12.1696L23.6363 12.1174L23.5837 12.1701L18.5094 7.09121C17.274 5.8541 17.274 3.84135 18.5094 2.60423C19.1069 2.00563 19.9032 1.67614 20.7506 1.67614C21.5985 1.67614 22.3943 2.00563 22.9918 2.60372L23.6353 3.24837L24.2788 2.60372C25.5152 1.36712 27.5264 1.36763 28.7612 2.60372C29.9976 3.84135 29.9981 5.8541 28.7623 7.09121ZM33.4124 13.5567C37.2968 13.5567 40.457 16.72 40.457 20.6084C40.457 23.2269 39.0136 25.6173 36.6896 26.8457L36.1284 27.1424L36.7382 27.3174C41.8907 28.7975 45.4889 33.5751 45.4889 38.936L45.4889 39.773L31.4502 39.773L31.5657 40.1112C31.8852 41.0485 32.0467 42.0129 32.0467 42.9778L32.0467 43.8153L14.2242 43.8153L14.2242 42.9783C14.2242 42.0139 14.3857 41.0495 14.7052 40.1117L14.8207 39.7735L0 39.7735L0 38.9365C0 33.0875 3.94884 27.9667 9.60276 26.484L10.2774 26.3069L9.64824 26.0056C7.0564 24.7649 5.382 22.1157 5.382 19.2572C5.382 15.1304 8.73642 11.7726 12.859 11.7726C16.9812 11.7726 20.3356 15.1304 20.3356 19.2572C20.3356 22.1152 18.6612 24.7644 16.0698 26.0051L15.4407 26.3064L16.1153 26.4834C16.8825 26.685 17.6369 26.9608 18.3581 27.3036L18.5697 27.4044L18.6883 27.2018C19.6129 25.6188 21.3174 24.636 23.136 24.636C25.2453 24.636 27.1211 25.9053 27.9143 27.8705L28.0155 28.1217L28.2604 28.0055C28.84 27.7308 29.4543 27.499 30.086 27.3174L30.6963 27.1424L30.1351 26.8457C27.8111 25.6167 26.3672 23.2269 26.3672 20.6084C26.3672 16.72 29.5274 13.5567 33.4124 13.5567ZM7.05436 19.2572C7.05436 16.0529 9.65847 13.4467 12.859 13.4467C16.0596 13.4467 18.6637 16.0534 18.6637 19.2572C18.6637 22.461 16.0596 25.0673 12.859 25.0673C9.65847 25.0673 7.05436 22.4615 7.05436 19.2572ZM33.4124 25.9867C30.45 25.9867 28.0396 23.5743 28.0396 20.6084C28.0396 17.643 30.4494 15.2307 33.4124 15.2307C36.3753 15.2307 38.7852 17.643 38.7852 20.6084C38.7852 23.5743 36.3748 25.9867 33.4124 25.9867ZM26.6182 29.7962C26.6182 27.8741 25.0557 26.3105 23.136 26.3105C21.2157 26.3105 19.6538 27.8741 19.6538 29.7962C19.6538 31.7184 21.2157 33.282 23.136 33.282C25.0562 33.282 26.6182 31.7184 26.6182 29.7962ZM1.69944 38.0994L15.6778 38.0994L15.7545 37.9869C16.8288 36.3998 18.421 35.1801 20.238 34.5518L20.7266 34.383L20.2957 34.097C18.8467 33.1346 17.9814 31.5271 17.9814 29.7957C17.9814 29.6105 17.9942 29.4125 18.0202 29.1905L18.0412 29.0129L17.8817 28.9326C16.3131 28.1406 14.6234 27.739 12.859 27.739C7.08451 27.739 2.29898 32.0725 1.72756 37.8186L1.69944 38.0994ZM43.7874 38.0994L43.7567 37.8165C43.1879 32.5176 38.7407 28.5218 33.4129 28.5218C31.6761 28.5218 29.9465 28.97 28.4101 29.8182L28.2844 29.8873L28.2777 30.0306C28.2036 31.6688 27.3429 33.1894 25.9757 34.097L25.5448 34.383L26.0334 34.5518C27.8504 35.1801 29.4426 36.3998 30.5169 37.9869L30.5931 38.0994L43.7874 38.0994ZM15.9385 42.1408L15.985 41.8451C16.5339 38.3593 19.6083 35.7316 23.136 35.7316C26.6631 35.7316 29.7375 38.3599 30.2859 41.8451L30.3324 42.1408L15.9385 42.1408Z" transform="translate(0.1499023 0.1499023)" id="иконка/потребление/1" fill="#F62E49" fill-rule="evenodd" stroke="#F62E49" stroke-width="0.3" />
</svg>