<?xml version="1.0" encoding="utf-8"?>
<svg width="42px" height="43px" viewBox="0 0 42 43" version="1.1" xmlns:xlink="http://www.w3.org/1999/xlink" xmlns="http://www.w3.org/2000/svg">
  <desc>Created with Lunacy</desc>
  <path d="M33.027 12.2493L34.1707 7.98058C34.3415 7.34339 34.9964 6.96525 35.6336 7.13598C36.2708 7.30672 36.649 7.96168 36.4782 8.59887L34.6234 15.5213C34.4527 16.1585 33.7977 16.5366 33.1605 16.3659L26.238 14.511C25.6008 14.3403 25.2226 13.6853 25.3934 13.0481C25.5641 12.4109 26.2191 12.0328 26.8563 12.2035L30.8467 13.2727L30.1492 12.1768C28.1896 9.09736 28.1896 9.09736 25.838 5.40208L25.6684 5.13554C24.5722 3.41294 22.6669 2.3753 20.6252 2.38902C18.5834 2.40274 16.6922 3.46585 15.6193 5.20303C13.9366 7.92727 13.9366 7.92727 13.4759 8.67315C13.1293 9.23439 12.3933 9.40835 11.832 9.06168C11.2708 8.71502 11.0968 7.97902 11.4435 7.41778C11.9042 6.67191 11.9042 6.67191 13.5868 3.9477C15.0919 1.51076 17.7449 0.0194351 20.6092 0.000188518C23.4733 -0.019058 26.146 1.43653 27.6838 3.85298L27.8532 4.11919C30.205 7.81482 30.205 7.81482 32.1646 10.8942L33.027 12.2493ZM1.56486 17.8678L5.66819 16.7683L5.24349 17.4559C3.45111 20.3579 2.54548 21.8241 1.25118 23.9196C-0.346564 26.5064 -0.418953 29.7555 1.06203 32.4109C2.54303 35.0664 5.3454 36.7121 8.38595 36.7121L12.2138 36.7121C12.8735 36.7121 13.4082 36.1774 13.4082 35.5177C13.4082 34.858 12.8735 34.3232 12.2138 34.3232L8.38595 34.3232C6.21154 34.3232 4.20748 33.1463 3.14837 31.2473C2.08929 29.3484 2.14105 27.0249 3.28364 25.175C4.57794 23.0795 5.48357 21.6132 7.27595 18.7112L7.76258 17.9234L8.87922 22.0907C9.04996 22.7279 9.70492 23.1061 10.3421 22.9353C10.9793 22.7646 11.3575 22.1096 11.1867 21.4724L9.33186 14.55C9.16113 13.9128 8.50617 13.5347 7.86897 13.7054L0.946569 15.5603C0.309374 15.731 -0.0687665 16.386 0.10197 17.0232C0.272706 17.6604 0.927664 18.0385 1.56486 17.8678ZM23.4585 36.7121L26.4871 39.7408C26.9535 40.2072 26.9535 40.9635 26.487 41.43C26.0206 41.8964 25.2643 41.8964 24.7978 41.4299L19.7303 36.3623C19.2638 35.8958 19.2638 35.1395 19.7303 34.6731L24.7978 29.6055C25.2643 29.1391 26.0206 29.1391 26.487 29.6055C26.9535 30.072 26.9535 30.8283 26.487 31.2947L23.4585 34.3232L32.7735 34.3232C34.946 34.3232 36.9482 33.1474 38.0063 31.2501C39.0645 29.3529 39.0128 27.0314 37.8712 25.1831C36.7975 23.4447 36.7975 23.4447 36.5268 23.0064C36.1802 22.4452 36.3542 21.7092 36.9154 21.3625C37.4767 21.0159 38.2127 21.1899 38.5593 21.7512C38.83 22.1894 38.83 22.1894 39.9036 23.9278C41.5004 26.513 41.5727 29.76 40.0927 32.4137C38.6126 35.0674 35.8122 36.7121 32.7735 36.7121L23.4585 36.7121Z" transform="translate(0.25 0.25)" id="иконка/потребление/2" fill="#F62E49" fill-rule="evenodd" stroke="none" />
</svg>