<?xml version="1.0" standalone="no"?>
<!DOCTYPE svg PUBLIC "-//W3C//DTD SVG 20010904//EN"
 "http://www.w3.org/TR/2001/REC-SVG-20010904/DTD/svg10.dtd">
<svg version="1.0" xmlns="http://www.w3.org/2000/svg"
 width="722.000000pt" height="356.000000pt" viewBox="0 0 722.000000 356.000000"
 preserveAspectRatio="xMidYMid meet">
<metadata>
Created by potrace 1.15, written by Peter Selinger 2001-2017
</metadata>
<g transform="translate(0.000000,356.000000) scale(0.100000,-0.100000)"
fill="#F62E49" stroke="none">
<path d="M3550 3440 c-613 -42 -1119 -152 -1655 -360 l-150 -58 -240 -26
c-285 -32 -646 -80 -1065 -142 -320 -47 -338 -53 -324 -98 10 -30 24 -37 64
-31 470 71 1230 175 1279 175 19 0 -10 -22 -114 -83 -382 -227 -661 -437 -856
-646 -208 -222 -315 -418 -341 -625 -16 -125 4 -233 67 -361 121 -246 364
-419 870 -618 569 -223 1152 -362 1785 -423 360 -34 912 -29 1289 12 587 63
1232 220 1676 406 376 157 673 347 905 578 228 226 345 435 357 630 11 169
-34 278 -172 416 -96 96 -200 167 -368 250 l-92 46 -29 70 c-85 207 -287 408
-540 535 -302 152 -845 282 -1416 338 -182 19 -748 27 -930 15z m460 -70 c322
-18 821 -71 1044 -111 471 -84 874 -257 1106 -475 69 -65 226 -261 216 -271
-2 -2 -58 23 -124 56 -562 282 -1189 430 -2132 503 -257 20 -1275 17 -1605 -5
-143 -9 -303 -20 -355 -22 l-95 -6 100 41 c261 105 381 143 595 186 496 102
814 128 1250 104z m-249 -360 c933 -47 1667 -199 2453 -507 l200 -78 14 -50
c9 -29 15 -95 15 -160 0 -119 -18 -195 -69 -282 -29 -51 -30 -74 -3 -99 29
-26 47 -11 90 74 54 108 71 194 67 340 -2 67 0 122 3 122 14 0 177 -94 234
-135 88 -62 188 -172 224 -247 109 -225 22 -471 -269 -757 -287 -283 -663
-492 -1215 -676 -944 -316 -1966 -403 -2965 -254 -589 88 -1221 275 -1689 500
-380 183 -557 381 -578 647 -23 303 208 626 725 1014 188 142 386 263 617 379
l200 99 155 15 c225 21 558 45 765 54 268 12 794 12 1026 1z"/>
</g>
</svg>
